<svg id="Capa_1" data-name="Capa 1" xmlns="http://www.w3.org/2000/svg" viewBox="0 0 217.96 516.67"><title>people1</title><path d="M-208.7,145.72c-.76,9,5.34,56.41,8.49,75,1.5,8.81,5.61,23.18,4.13,30.8-2.11,10.63-2.72,24.38-1.56,32.39.73,4.86,3,27.29-.26,35.5-1.73,4.3-4.89,26.35-4.89,26.35-8.25,20.77-3.6,19.74-3.6,19.74,2.56,3.13,6.93.25,6.93.25a4.29,4.29,0,0,0,5.64-.5c2.86,2.36,6.2-.29,6.2-.29,3.59,1.86,6.92-1.57,6.92-1.57,2.07,1,2.57-.28,2.57-.28,6.19-.39-3.45-20.16-3.45-20.16-2.31-17.75,2.29-27.62,2.29-27.62,15.08-44.59,15.84-56.42,9.82-73.23-1.7-4.85-2.13-6.77-1.35-8.87,1.81-4.86.49-24.42,2.69-32.18,4.25-15,8.44-52.94,10.63-70.66,2.93-23.86-10.4-55.86-10.4-55.86-2.92-13,1.36-59.42,1.36-59.42,6,9.28,5.75,25.66,5.75,25.66-1,17.17,13.92,43.42,13.92,43.42,7.14,10.85,9.84,21.14,9.84,21.91,0,3.12-.68,10.69-.68,10.69l.27,6.59c.12,1.68,1.07,7.45.92,10.24-1.12,17.19,1.62,14,1.62,14,2.31,0,4.85-13.83,4.85-13.83,0,3.56-.87,14.24,1.05,18.27,2.31,4.8,4-.83,4-2,.61-21.88,1.93-16.15,1.93-16.15,1.28,17.75,2.86,21.76,5.69,20.38,2.14-1,.18-21.3.18-21.3,3.67,12,6.45,14,6.45,14,6.06,4.24,2.31-7.47,1.47-9.79-4.48-12.32-4.62-16.59-4.62-16.59,5.6,11.07,9.82,10.66,9.82,10.66,5.46-1.73-4.77-17.41-10.77-24.92-3.06-3.83-7-9-8.15-12-1.86-5.16-3.27-21.73-3.27-21.73-.57-19.55-5.41-28-5.41-28-8.29-13.22-9.85-37.9-9.85-37.9L-141.86-35c-2.9-28.42-23.9-28.63-23.9-28.63-21.22-3.15-24.18-10-24.18-10-4.49-6.45-1.92-18.82-1.92-18.82,3.73-3,5.17-11,5.17-11,6.19-4.74,5.88-11.67,3-11.59-2.29.06-1.77-1.84-1.77-1.84,3.87-31.19-23.9-32.78-23.9-32.78h-4.24s-27.78,1.59-23.91,32.77c0,0,.52,1.9-1.8,1.84-2.85-.08-3.12,6.85,3,11.59,0,0,1.44,8,5.17,11,0,0,2.57,12.37-1.93,18.82,0,0-2.94,6.84-24.17,10,0,0-21,.2-23.9,28.62l-.39,41.65s-1.53,24.68-9.85,37.91c0,0-4.83,8.49-5.38,28,0,0-1.42,16.56-3.28,21.72-1.13,3-5.07,8.15-8.16,12-6,7.5-16.21,23.14-10.77,24.93,0,0,4.24.41,9.82-10.67,0,0-.12,4.24-4.59,16.6-.88,2.28-4.62,14,1.44,9.78,0,0,2.8-1.92,6.45-14,0,0-2,20.28.22,21.3,2.85,1.39,4.4-2.62,5.68-20.37,0,0,1.32-5.73,1.93,16.14,0,1.13,1.69,6.76,4,2,1.95-4,1.07-14.69,1.07-18.27,0,0,2.51,13.83,4.86,13.83,0,0,2.76,3.23,1.63-14-.19-2.81.8-8.57.92-10.25l.27-6.59s-.69-7.55-.69-10.69c0-.78,2.71-11.06,9.85-21.9,0,0,14.85-26.27,13.89-43.43,0,0-.21-16.38,5.77-25.66,0,0,4.25,46.4,1.37,59.42,0,0-13.36,32-10.41,55.86,2.17,17.77,6.35,55.69,10.61,70.66,2.23,7.75.91,27.3,2.69,32.18.81,2.12.39,4.07-1.34,8.88-6,16.8-5.23,28.63,9.85,73.22,0,0,4.64,9.88,2.29,27.63,0,0-9.63,19.76-3.46,20.16,0,0,.48,1.3,2.57.27,0,0,3.33,3.43,6.93,1.57,0,0,3.34,2.65,6.19.29a4.25,4.25,0,0,0,5.61.5s4.38,2.94,7-.24c0,0,4.62,1-3.61-19.75,0,0-3.14-22-4.88-26.35-3.31-8.2-1-30.68-.27-35.5,1.14-8.05.53-21.77-1.55-32.39-1.52-7.6,2.6-22,4.12-30.8,3.13-18.59,9.26-66,8.49-75l2.53.89A5.17,5.17,0,0,0-208.7,145.72Z" transform="translate(320.45 149.67)"/></svg>