<svg id="Capa_1" data-name="Capa 1" xmlns="http://www.w3.org/2000/svg" viewBox="0 0 215.01 509.67"><defs><style>.cls-1{fill:#6affe3;}</style></defs><title>reveal1</title><path class="cls-1" d="M-117.6,102.86c5.92,7.41,16,22.88,10.63,24.58,0,0-4.16.41-9.69-10.51,0,0,.14,4.21,4.56,16.36.83,2.29,4.53,13.84-1.45,9.66,0,0-2.74-1.89-6.36-13.77,0,0,1.93,20-.18,21-2.79,1.36-4.35-2.59-5.61-20.1,0,0-1.31-5.65-1.91,15.93,0,1.11-1.71,6.67-4,1.93-1.9-4-1-14.51-1-18,0,0-2.51,13.64-4.78,13.64,0,0-2.71,3.19-1.6-13.77.15-2.75-.79-8.44-.91-10.1l-.27-6.5s.68-7.47.68-10.55c0-.76-2.67-10.91-9.71-21.61,0,0-14.67-25.89-13.73-42.83,0,0,.22-16.16-5.68-25.31,0,0-4.22,45.77-1.34,58.61,0,0,13.15,31.57,10.26,55.11-2.16,17.48-6.29,54.93-10.48,69.7-2.17,7.65-.87,27-2.66,31.74-.77,2.07-.34,4,1.33,8.75,5.94,16.58,5.19,28.25-9.68,72.24,0,0-4.54,9.74-2.26,27.25,0,0,9.51,19.5,3.4,19.88,0,0-.49,1.29-2.53.28,0,0-3.29,3.38-6.83,1.55,0,0-3.29,2.61-6.12.28a4.23,4.23,0,0,1-5.56.5s-4.31,2.84-6.84-.25c0,0-4.58,1,3.56-19.47,0,0,3.11-21.75,4.82-26,3.25-8.09,1-30.22.26-35-1.15-7.91-.55-21.47,1.54-32,1.45-7.51-2.6-21.69-4.08-30.38-3.11-18.36-9.12-65.16-8.37-74a5.11,5.11,0,0,1-2.92.87l-2.5-.88c.76,8.86-5.29,55.66-8.37,74-1.5,8.71-5.57,22.89-4.07,30.38,2,10.48,2.65,24,1.53,32-.69,4.75-3,26.93.27,35,1.71,4.28,4.81,26,4.81,26,8.12,20.49,3.56,19.48,3.56,19.48-2.56,3.14-6.88.24-6.88.24a4.19,4.19,0,0,1-5.54-.5c-2.81,2.33-6.1-.28-6.1-.28-3.56,1.83-6.84-1.55-6.84-1.55-2.06,1-2.54-.27-2.54-.27-6.08-.39,3.42-19.88,3.42-19.88,2.32-17.51-2.26-27.26-2.26-27.26-14.88-44-15.64-55.66-9.72-72.23,1.71-4.74,2.12-6.67,1.32-8.76-1.75-4.81-.45-24.1-2.65-31.74-4.2-14.77-8.33-52.18-10.47-69.7-2.91-23.54,10.27-55.11,10.27-55.11,2.84-12.84-1.35-58.61-1.35-58.61-5.9,9.15-5.69,25.31-5.69,25.31C-262,55.13-276.63,81-276.63,81c-7.05,10.69-9.72,20.84-9.72,21.6,0,3.1.68,10.55.68,10.55l-.26,6.5c-.12,1.66-1.1,7.34-.91,10.11,1.11,16.95-1.61,13.76-1.61,13.76-2.32,0-4.79-13.64-4.79-13.64,0,3.53.86,14.05-1.06,18-2.29,4.74-3.93-.82-3.95-1.93-.61-21.57-1.91-15.92-1.91-15.92-1.26,17.51-2.79,21.46-5.6,20.09-2.15-1-.22-21-.22-21-3.6,11.88-6.36,13.77-6.36,13.77-6,4.15-2.29-7.4-1.42-9.65,4.41-12.19,4.53-16.37,4.53-16.37-5.51,10.93-9.69,10.52-9.69,10.52-5.37-1.76,4.66-17.19,10.62-24.59,3.05-3.79,6.94-8.84,8.05-11.83C-298.41,85.93-297,69.6-297,69.6c.54-19.29,5.31-27.66,5.31-27.66,8.2-13,9.71-37.4,9.71-37.4l.39-41.08c2.82-28,23.57-28.24,23.57-28.24,20.95-3.1,23.85-9.85,23.85-9.85,4.43-6.36,1.9-18.57,1.9-18.57-3.68-3-5.1-10.9-5.1-10.9-6.09-4.67-5.82-11.51-3-11.43,2.29.06,1.78-1.81,1.78-1.81C-242.43-148.1-215-149.67-215-149.67h4.18s27.4,1.57,23.58,32.34c0,0-.51,1.87,1.75,1.81,2.82-.08,3.12,6.76-3,11.43,0,0-1.42,7.93-5.1,10.9,0,0-2.54,12.21,1.89,18.57,0,0,2.92,6.74,23.85,9.84,0,0,20.72.21,23.58,28.25l.37,41.08s1.53,24.35,9.71,37.39c0,0,4.78,8.37,5.34,27.66,0,0,1.39,16.34,3.22,21.43C-124.5,94-120.61,99.08-117.6,102.86Z" transform="translate(320.45 149.67)"/></svg>